<?xml version="1.0" encoding="utf-8"?>
<!-- Generator: Adobe Illustrator 19.0.0, SVG Export Plug-In . SVG Version: 6.00 Build 0)  -->
<svg version="1.1" id="layer" xmlns="http://www.w3.org/2000/svg" xmlns:xlink="http://www.w3.org/1999/xlink" x="0px" y="0px"
	 viewBox="-153 -46 652 652" style="enable-background:new -153 -46 652 652;" xml:space="preserve">
<style type="text/css">
	.st0{fill:#85CDCA;}
	.st1{fill:#E8AB7C;}
	.st2{fill:#762232;}
	.st3{fill:#404040;}
</style>
<path class="st0" d="M7.9,304.1c0.3,0.2-3.3,3.6-3.3,3.6s-34.7,22-48.8,30.4c-13.8,8.2-29.4,18-45.7,17c-2.2-0.2-4.6-0.4-7.1-1
	c-1.7-0.4-3.2-0.8-4.8-1.4c-6.1-2.3-11.3-6.3-15.4-11.4c-10-12.5-12.5-29.4-13.6-45c-1.5-19.2-0.2-38.7,1.7-57.7
	c0.9-8.8,1.9-17.4,5.4-25.6c10.8-24.9,39-21.9,59.5-14.5c21.7,7.8,50.6,22,68.9,37.6c-6.9,5.9,2.8,15-3.3,21.4
	c-5.8,6.3-5.4,8.9-3.3,17.9C0.7,288.8-1.8,296.1,7.9,304.1z"/>
<path class="st1" d="M139.9,296.4c-1.1,15.9-3.5,32.5-13.6,45c-4.1,5.3-9.5,9.2-15.4,11.4c-1.5,0.6-3.2,1.2-4.8,1.4
	c-2.2,0.6-4.6,0.8-7.1,1c-16.5,1-35.1-6.3-49.2-15.3c-14.1-8.4-32.5-21.8-45.3-32.2l-3.3-3.6c9.7-8,10.3-15.3,13.3-28.6
	c2-9,5.8-8.2,0-14.3c-6.1-6.5-3.1-19-10-25c18.2-15.7,47.3-29.8,69-37.6c20.6-7.4,48.7-10.4,59.5,14.5c3.5,8.2,4.5,16.8,5.4,25.6
	C140.1,257.7,141.4,277.2,139.9,296.4z"/>
<path class="st2" d="M34,275.2c-3.1,13.3-16.8,22.5-27,30.5c-0.8,0.6-1.6,1.4-2.5,2c-0.8-0.6-1.6-1.2-2.5-2
	c-10.2-8-23.8-17.2-27-30.5c-2.1-9,2.7-17.2,8.8-23.3c6.4-6.5,13.5-9.7,20.7-15.7c7.2,5.9,13.9,9.3,20.3,15.7
	C31.3,258,36.2,266.2,34,275.2z"/>
<path class="st3" d="M411.7,278.8c0.8,6.6,2.5,12.6,7.2,17.3c0.3,0.3,0.6,0.6,0.9,0.8c2.9,2.4,6.3,3.7,10,4c8.2,0.6,16.2-0.3,23.8-4
	c2.3-1.1,4.2-0.7,6,1.1c0.4,0.4,0.8,0.8,1.2,1.2c3.3,3.8,2.2,9.4-2.4,11.5c-4.2,2-8.6,3.2-13.2,3.9c-5.1,0.8-10.2,1.3-15.3,0.8
	c-14.9-1.4-25-9-30-23.2c-2.1-6-2.9-12.3-3-18.6c-0.2-7.1,0.4-14.2,2.4-21c1.1-3.6,2.5-6.9,4.5-10.1c3.7-5.9,8.8-10.1,15.3-12.6
	c8.9-3.3,18-3.8,27-0.3c12.2,4.8,19.3,13.9,21.7,26.7c1,5.4,0.8,10.7,0,16.1c-0.6,3.7-3.5,6.2-7.2,6.3c-1.9,0-3.8,0-5.7,0
	c-13.7,0-27.4,0-41.2,0C413.1,278.8,412.6,278.8,411.7,278.8z M411.7,264c1.9,0.3,41.1,0.2,42.3-0.1c-0.2-1.9-0.4-3.9-0.8-5.8
	c-1.6-7.5-6-12.6-13.2-15.1c-3.3-1.2-6.7-1.3-10.2-0.9c-6.4,0.6-11.3,3.7-14.5,9.4c-1.4,2.6-2.4,5.3-3,8.2
	C412.2,261.1,412,262.6,411.7,264z M296.8,294.4c0.3-0.7,0.5-1.2,0.7-1.7c7.4-20.3,14.8-40.6,22.1-60.9c0.8-2.2,2.5-4.1,5.5-3.9
	c1.4,0.1,2.8,0.1,4.2,0c3.3-0.2,6.1,3.1,4.8,6.8c-2.2,6-4.3,12-6.5,17.9c-7.9,21.7-15.7,43.3-23.6,65c-3,8.3-7.1,16.1-12.8,22.8
	c-7,8.2-15.6,14-26,16.9c-1.5,0.4-3,0.7-4.5,0.2c-2.5-0.8-4.2-3-4.3-5.6c-0.1-1.3-0.1-2.6,0-3.9c0.1-2.2,1.5-3.9,3.7-4.4
	c10.2-2.5,17.7-8.6,23.5-17.2c2.1-3.1,3.9-6.5,5.4-10c0.4-0.9,0.4-1.7,0-2.6c-6.9-17.2-13.8-34.5-20.7-51.8c-3.6-9-7.2-18-10.8-27
	c-0.6-1.4-0.7-2.8-0.1-4.2c0.8-1.8,2.2-2.8,4.2-2.9c1.9-0.1,3.8-0.1,5.7,0c2.2,0.1,3.6,1.3,4.4,3.3c1.8,4.5,3.6,9.1,5.4,13.6
	c6.4,16,12.8,32,19.1,48C296.3,293.3,296.5,293.7,296.8,294.4z M221.5,318.4c-3.4,0.1-6.6-0.6-9.8-1.4c-4.2-1.1-8.3-2.6-12.3-4.4
	c-4.9-2.2-7.3-7.3-6-12.5c0.8-2.9,3.6-4.3,6.4-3.1c0.5,0.2,1,0.5,1.5,0.8c4.6,2.6,9.4,4.6,14.6,5.5c4,0.7,8,0.8,11.8-0.5
	c1.3-0.4,2.6-1,3.7-1.8c4.2-2.8,5-8.4,3.9-11.8c-0.6-1.7-1.6-3.1-3-4.2c-1.9-1.5-4-2.7-6.3-3.5c-3.1-1.2-6.3-2.3-9.5-3.4
	c-4.2-1.4-8.3-3-12-5.4c-4-2.5-7.3-5.6-9.5-9.8c-4.4-8.3-3.7-22.4,6.5-30.6c4.6-3.7,9.9-5.7,15.7-6.4c7.9-0.9,15.4,0.7,22.8,3.2
	c0.5,0.2,1.1,0.4,1.6,0.6c2.7,1.2,3.8,4,2.6,6.7c-0.7,1.4-1.4,2.9-2.1,4.3c-1.3,2.5-3.6,3.4-6.2,2.5c-3.3-1.2-6.6-2.1-10.1-2.6
	c-3.7-0.5-7.4-0.4-10.9,0.8c-3.4,1.2-6.1,3.2-7.2,6.8c-1.6,5.1-0.1,8.8,3.7,11.5c2.7,1.9,5.8,3.1,8.9,4.1c3.8,1.3,7.7,2.6,11.4,4.1
	c4.5,1.8,8.5,4.2,12,7.6c5.5,5.4,7.5,12.1,6.6,19.7c-1.3,12.2-9.8,19.3-20.1,22C227.2,318,224.4,318.4,221.5,318.4z M362.5,227.3
	c0.6,0,1.2,0,1.7,0c6.8,0,13.6,0,20.4,0c0.6,0,1.1,0,1.7,0.1c2.4,0.4,4,2.3,4,4.7c0,1.7,0,3.3,0,4.9c0,2.6-1.8,4.6-4.4,4.9
	c-0.5,0-0.9,0-1.4,0c-6.8,0-13.5,0-20.3,0c-0.6,0-1.1,0-1.8,0c0,0.5-0.1,0.9-0.1,1.3c0,13.5,0,26.9,0,40.4c0,3,0.3,6,1.3,8.8
	c0.5,1.4,1.1,2.9,2,4.1c1.8,2.8,4.6,4.2,7.9,4.4c3.6,0.2,7.2,0.1,10.7,0.2c0.6,0,1.2,0,1.8,0.1c2.4,0.3,4.2,2.2,4.2,4.7
	c0,1,0,2.1,0,3.1c0,3.6-2.6,6.6-6.1,6.7c-4.6,0.2-9.3,0.4-14-0.4c-9.5-1.6-15.9-7.1-19.6-15.9c-1.7-4.1-2.5-8.4-2.8-12.7
	c-0.1-1.6-0.1-3.2-0.1-4.8c0-25.6,0-51.2,0-76.8c0-0.7,0-1.3,0.1-2c0.2-2.2,2-4.1,4.2-4.2c2-0.1,4-0.1,6,0c2.3,0.1,4,2,4.3,4.3
	c0,0.5,0,1,0,1.5c0,7,0,14.1,0,21.1C362.4,226.3,362.4,226.8,362.5,227.3z"/>
</svg>
